<svg width="260" height="215" viewBox="0 0 260 215" fill="none" xmlns="http://www.w3.org/2000/svg">
<rect width="260" height="215" fill="#1E1E1E"/>
<rect width="260" height="215" fill="#D9D9D9"/>
<path d="M134.665 159.691L121.665 147.691C98.6646 133.691 92.8646 147.891 105.665 164.691M105.665 164.691L114.665 159.691M105.665 164.691L134.665 193.691" stroke="#FF0000" stroke-width="4"/>
<path d="M45.5516 159C17.2158 98.2778 -13.7648 5.11002 89 118.216" stroke="black" stroke-width="3"/>
<path d="M219.732 159C250.862 98.2778 284.897 5.11002 172 118.216" stroke="black" stroke-width="3"/>
<g filter="url(#filter0_b_0_1)">
<ellipse cx="130.5" cy="75.5" rx="64.5" ry="54.5" fill="#D9D9D9"/>
<path d="M193.5 75.5C193.5 104.544 165.541 128.5 130.5 128.5C95.4593 128.5 67.5 104.544 67.5 75.5C67.5 46.4558 95.4593 22.5 130.5 22.5C165.541 22.5 193.5 46.4558 193.5 75.5Z" stroke="black" stroke-width="3"/>
<path d="M193.5 75.5C193.5 104.544 165.541 128.5 130.5 128.5C95.4593 128.5 67.5 104.544 67.5 75.5C67.5 46.4558 95.4593 22.5 130.5 22.5C165.541 22.5 193.5 46.4558 193.5 75.5Z" stroke="black" stroke-opacity="0.2" stroke-width="3"/>
</g>
<path d="M135 159.797L148.487 147.725C172.348 133.641 178.365 147.926 165.086 164.827M165.086 164.827L156.786 166.034M165.086 164.827L135 194" stroke="#FF0000" stroke-width="4"/>
<path d="M104 65V64" stroke="white" stroke-width="3" stroke-linecap="round"/>
<path d="M104 65C104.115 65.9214 104.325 65.6623 105 66" stroke="black" stroke-width="10" stroke-linecap="round"/>
<path d="M148 66C148.921 65.8848 148.662 65.6754 149 65" stroke="black" stroke-width="10" stroke-linecap="round"/>
<path d="M113 88C117 98.6667 127.6 113.6 138 88" stroke="black" stroke-width="3"/>
<defs>
<filter id="filter0_b_0_1" x="62" y="17" width="137" height="117" filterUnits="userSpaceOnUse" color-interpolation-filters="sRGB">
<feFlood flood-opacity="0" result="BackgroundImageFix"/>
<feGaussianBlur in="BackgroundImageFix" stdDeviation="2"/>
<feComposite in2="SourceAlpha" operator="in" result="effect1_backgroundBlur_0_1"/>
<feBlend mode="normal" in="SourceGraphic" in2="effect1_backgroundBlur_0_1" result="shape"/>
</filter>
</defs>
</svg>
